<?xml version="1.0" encoding="UTF-8"?>
<svg id="Layer_1" xmlns="http://www.w3.org/2000/svg" version="1.1" viewBox="0 0 595.28 841.89">
  <!-- Generator: Adobe Illustrator 29.0.0, SVG Export Plug-In . SVG Version: 2.1.0 Build 186)  -->
  <defs>
    <style>
      .st0 {
        fill: #fff;
      }
    </style>
  </defs>
  <path class="st0" d="M527.8,268.89v259.2H67v-259.2h460.8ZM192.69,355.45l-1.68.36v57.91c-1.7-.26-3.76.85-5.28-.12v-57.91h-1.44v54.91l-2.77-2.63-2.75-1.81v-50.47h-3.36v49.39l-1.68-.24v-49.15h-1.68v48.91h-6.96v-48.91h-1.68v49.03l-3.36.84v-49.87h-1.92v50.23l-1.68.6v-50.83h-3.36v51.91c-7.89,3.73-16.59,7.14-22.07,14.26.45.11.57-.25.84-.48,3.47-2.89,6.45-5.55,10.51-7.72,3.24-1.73,7.2-3.36,10.72-4.27v12.23l3.01.18.35-.3v-13.55l1.68-.24v14.15h1.92v-14.51l3.36-.84v14.03c-6.15,3.44-12.44,8.87-15.72,15.22-4.96,9.58.51,16.29,10.93,14.04,11.43-2.46,24.81-14.78,27.03-26.46.53-2.79.47-5.18.43-7.97l4.93-.71v6.83c.41.54,1.27.54,1.68,0v-6.59l5.52.48v6.47h4.2l.36-.36v-4.68l2.16.72v4.32h3.12s.12-2.4.12-2.4c.92.69,2.14,1,2.08,2.37l.68.03c-.22.58-.63,1.03-1.08,1.44-2.05,1.91-5.35,3.63-7.68,5.52-17.95,14.54-32.27,34.18-50.76,47.81-1.89,1.39-9.13,6.45-10.95,6.8-2.5.47-8.55-2.33-11.43-3.09-5.72-1.51-19.57-5-24.25-.92-3.52,3.07,0,6.87,2.99,8.51,7.19,3.97,18.28,2.75,25.8.12,2.04-.71,4.07-1.94,6.04-2.59,2.64-.88,4.3.3,6.93.64,12.29,1.59,28.65-2.27,39.68-7.75,15.11-7.51,33.45-27.71,30.9-45.78-.25-1.77-.78-4.85-1.64-6.09l-1.88-3.73c.07-.8,2.49-2.57,3.19-2.79.74-.23.16,1.72.35,1.92h2.88v-3.6l2.16-.72v4.32h1.44v-5.04l5.52-1.2v5.99h3.12v-6.23h1.92v6.23h5.04v-4.56c2.54.51,1.6,2.72,1.78,4.57h2.06s0,3.7,0,3.7c0,.55-1.11,2.98-1.48,3.56-.72,1.15-2.03,2.4-3.08,3.28v-5.4l-.6-.36-.36.36v5.99l-3.36,2.04c-.06.44.5.2.73.13.94-.26,1.69-.9,2.62-1.09.98,4.44-5.45,4.98-5.54.6-.01-.68.26-1.27.27-1.91.02-1.48.22-4.23-.01-5.52-.16-.92-.86-.79-.97.23-.18,1.61-.43,6.93-.11,8.29.91,3.81,6.53,3.45,7.06.34.13-.75-.09-2.41.29-3.05.26-.44,1.29-1.07,1.76-1.61.87-1,1.61-2.15,2.52-3.12v9.95l.36.35.36-.35v-4.8c0-.17.59-.56.85-.6,2.2-.37,4.25,3.76,4.67,5.52l.95-.36-3.08-5.08c.81-1.11,2.44-1.94,1.98-3.69-.7-2.69-3.08-2.44-5.37-2.38,1.22-2.92.75-5.56-.73-8.26v-62.71s-1.91,0-1.91,0v31.04s-.12,30.1-.12,30.1l-1.56-1.08v-60.06h-5.04v58.98s-1.92-.24-1.92-.24v-58.75h-3.12v58.63l-5.52,1.56v-60.18h-1.44s.02,60.76.02,60.76l-2.17.87v-61.62h-2.88v63.3c-1.57.22-3.84,2.9-5.36,1.94l-.38-.87-.02-64.23-1.2-.14v63.54l-2.16-1.2v-62.34h-3.12v60.42l-1.92-.6-.24-59.83h-4.56v58.51l-5.52-.48v-58.27ZM249.55,355.69h-1.68s.13,66.18.13,66.18h1.55s0-66.18,0-66.18ZM258.42,355.69h-3.6v65.8s3.13.26,3.13.26l.48-.28v-65.78ZM264.9,355.69h-4.56v65.94h4.56v-65.94ZM270.41,355.69h-3.36v65.82l.6.36h2.76s0-66.18,0-66.18ZM275.69,355.69v66.18h1.68s0-37.77,0-37.77v-28.41s-1.67,0-1.67,0ZM284.09,355.69h-1.44v66.18h1.44v-66.18ZM286.01,355.69v66.18h1.44s.24-12.83.24-12.83l-.09-27.05-.15-26.3h-1.44ZM296.08,355.69h-3.12v65.58c0,.07-.3.18-.24.36h3.36v-65.94ZM303.04,355.69h-1.44v66.18h1.44v-66.18ZM305.2,355.69v65.82l1.44.12c-.4-1.67-.28-3.65-.25-5.4.26-19.63-.49-39.72,0-59.47,0-.41.08-.7.25-1.06h-1.44ZM311.91,355.69v66.18h3.12s-.01-5.62-.01-5.62v-60.56s-3.11,0-3.11,0ZM318.63,355.69h-1.68s0,14.73,0,14.73v51.45s1.69,0,1.69,0v-66.18ZM325.59,355.69h-1.68v66.18h1.68v-66.18ZM329.18,355.69v65.82l2.64.36c-.03,1.21.09,2.47.3,3.66.29,1.65.69,1.43.48,3.23-.32,2.7-1.21,8.96,2.52,9.6,1.35.23,2.39.18,3.31-.89.36-.43,1.12-1.9.02-1.42-.63.27-.64,1.26-2.22,1.56-3.51.67-3.13-5.05-2.96-7.22.02-.29.09-1.28.47-1.32,1.22,2.59,3.76,4.41,6.32,5.56.81.36,2.46.65,3.03,1.04.8.55,1.45,3.01,3.09,3.03.5,6.48,3.91,11.39,9.79,14.07,1.1.5,4.92,1.5,5.36,1.84.41.31.19.42.05.76-.79,1.98-8.22,8.41-10.25,10.14-2.9,2.46-6.2,5.01-9.25,7.29-2.41,1.8-6.66,5.64-9.66,5.4-2.29-.18-6.69-1.89-9.26-2.5-7.09-1.69-20.74-4.77-27.34-1.67-4.78,2.24-5.52,6.31-1.32,9.7,6.99,5.64,23.07,2.46,30.94-.47,1.7-.63,6.17-3.07,7.44-3.13.64-.03,1.66.19,2.32.32,4.1.75,9.84,2.2,13.86,3.41.44.13,1.53.36,1.66.76-.85,3.11-1.12,6.23.01,9.32,1.67,4.54,6.61,7.62,11.13,8.78,3.8.97,8.04,1.22,11.9.93l-.34-.46c-.56.18-1.11.27-1.7.24-7.73-.37-18.24-2.96-20.16-11.75-.34-1.54-.59-5.83,1.1-6.6,1.02-.47,4.96,1.12,6.38,1.05,9.32.56,19.76,2.61,28.47-1.69,11.14-5.49,3.79-11.77-5-12.42s-20.47,1.17-27.1,6.72c-1.16.97-3.19,3.75-4.57,3.84-3.66-.77-7.62-1.46-11.2-2.48-1.06-.3-3.66-.72-2.33-2.2,1.21-1.35,5.27-3.46,7.02-4.73,4.44-3.24,9.33-7.14,13.36-10.86,1.6-1.47,5.13-5.73,6.63-6.57,1.82-1.01,3.67-.24,5.49-.25,13.47-.13,28.01-8.93,37.66-17.75,4.9-4.48,12.65-11.81,9.7-19.06v-62.95s-4.79,0-4.79,0v60.66l-3.84-.24v-60.42h-1.2v60.66l-4.08.96v-61.62h-3.12v63.3c-6.83,3.54-12.42,9.04-17.75,14.52h-.48s-.49-.73-.49-.73c0-.55,1.32-1.33,1.63-1.97,1-2.06-.43-4.08-2.58-4.26l4.73-4.7,4.15-.22v-65.94h-4.56v50.23s-.36.6-.36.6l-1.8-.71v-50.11h-1.44v49.87l-1.92-.24v-49.63h-3.36v49.87l-1.92.24v-50.11h-4.8v50.71c0,.3-.16.42-.38.58-1.04.75-3.95,1.15-5.14,2.18v-53.47h-1.44v54.43l-2.16,1.2-.02-15.72.5-.46-.5-.46.02-38.98h-3.12v40.16l-5.52,2.28v-42.44l-1.21.11-.22,43.13-5.04,3.28v-46.52s-1.92,0-1.92,0v40.89c-.01.96-.02,1.9-.02,2.87,0,2.34,1.03,4.71-1.9,5.63v-49.39h-5.04l-.19,55.32-3.29,6.54-.12-61.87h-3.12ZM394.43,355.69h-3.12s.24,65.94.24,65.94h2.88v-65.94ZM422.02,355.69h-3.12s.19,18.1.19,18.1l.03,47.97,2.89-.25v-65.82ZM432.57,355.69h-5.04v65.82l.4.33h4.01c.32-.09.63-1.53.63-1.77v-64.38ZM434.49,355.69v66.18l1.62-.35-.19-7.43v-58.4s-1.43,0-1.43,0ZM441.21,355.69h-3.36v65.94h3.36v-65.94ZM256.21,426.23c-2.09.29-3.46,2.76-2.3,4.59.99,1.57,2.77,1.49,4.12,2.36,2.96,1.92.53,5.33-2.11,4.27-.62-.25-.94-.84-1.25-.92-.98-.27-.94.77-.17,1.37,2.72,2.1,7.15-.75,5.31-4.11-1.02-1.86-4.94-2.12-5.41-3.7-.56-1.89.96-3.3,2.85-2.84.32.08,2.39,1.46,2.38.49-.01-.62-2.59-1.62-3.41-1.51ZM289.79,426.25c-3.78.5-3.86,7.23-2.87,9.93,1.17,3.19,5.33,3.45,6.7.37,1.47-3.3,1.35-11-3.83-10.31ZM226.44,427.46c-1.8-2.04-5.14-1.09-6.03,1.37-.51,1.39-.74,4.34-.54,5.81.69,5.07,6.18,5.63,7.63.78.54-1.8.23-6.5-1.05-7.96ZM310.71,426.42c-1.07.08-.92,2.13-.96,2.98-.08,1.74-.28,6.05.52,7.41,1,1.7,4.07,1.91,5.57.85.23-.17,1.11-1.66,1.11-1.77v-9.47h-.72c-.36.34-.11,7.67-.24,8.76-.29,2.37-2.74,2.98-4.45,1.56-.2-.17-.84-.92-.84-1.08v-9.23ZM279.77,427.38l3.48-.24-.24-.48h-7.8l.6.72h3s-.22,9.44-.22,9.44c.17,1.37,1.18,1.82,1.18.76v-10.19ZM327.74,426.9c-.46-.07-.64.19-.72.6-.3,1.63.21,4.04,0,5.76l-.37,2.26-5.04-8.86c-.11.15-.6.52-.6.59v10.55c0,.15.49.46.72.36l.24-8.39c2.18,2.35,3.55,5.55,5.04,8.39.19.14.72-.23.72-.36v-10.91ZM435.99,483.18c-1.75-1.44-.73-5.9,1.79-6.59,1.79-.49,4-.37,6.06-.9,2.73-.7,10.02-4.26,10.52-7.25.67-4.03-7.63-.9-9.31-.17-8.02,3.52-11.97,11.07-20.82,13.95-2.45.8-8.79,1.94-8.9-1.99-.09-3.03,3.04-5.02,5.33-6.37,13.16-7.76,26.42-17.89,37.82-28.13,2.41-2.16,8.23-7.43,9.56-10.11s-1.22-3.28-3.38-2.66c-2.79.81-8.95,5.3-11.54,7.17-14.89,10.72-27.17,24.49-40.23,37.23-2.53,2.47-3.97,3.67-7.34,5.13-1.33.58-5.5,2.27-6.67,1.45-.61-.5-.46-1.9-.26-2.63.42-1.6,6.39-7.43,7.92-8.87,1.03-.97,5.66-3.75,2.7-4.52-.38.06-4.03,3.25-4.62,3.8-1.79,1.67-3.95,3.89-5.51,5.76s-3.61,3.89-2.49,6.57c.67,1.16,3.13.94,4.3.76,2.06-.32,4.64-2.05,6.34-2.29.51-.07.4.19.32.57-2.94,3.52-6.12,6.84-9.07,10.35-3.75,4.45-14.79,17.21-15.11,22.57-.18,3.13,2.8,3.02,4.95,2.05,5.08-2.3,11.48-10.84,14.8-15.42,4.53-6.24,8.66-12.88,11.43-20.1.86-.05,1.35.73,2.19,1.02,2.79.99,6.35-.19,8.99-1.23,1.05-.41,6.08-3.16,6.44-3.16.98-.01.81,1.59,1.06,2.29,1.67,4.58,6.48,3.11,10.2,2.01s7.23-3.05,10.43-5.16l1.58-1.54c-3.57,2.3-7.22,4.68-11.34,5.93-1.78.54-6.68,1.69-8.14.48ZM413.9,462.83c1.48.75,4.64-1.98,3.7-3.34-.82-1.17-4.94,1.86-3.7,3.34ZM263.22,483.25c-.37-.39,1.63-2.86,1.96-3.43,2.28-4.05,2.05-7.06,3.19-11.2.19-.67,1.75-3.12.48-3.12-.98.56-1.38,1.67-2.27,2.53-3.58,3.46-12.51,8.79-17.05,11.49-3.89,2.31-8.89,4.67-13.52,3.96-2.62-.4-2.54-2.94-1.53-4.85,1.66-3.13,2.67-2.05,5.59-2.33s9.71-3.79,11.77-5.98c1.24-1.32,1.9-3.57-.48-3.85-8.11-.95-14.38,6.33-19.79,10.92-1.77,1.5-7.25,5.28-8.66,1.69s3.38-5.88,2.6-9.32c-.7-3.1-6.47-2.48-8.78-1.92-5.01,1.22-11.88,6.27-13.31,11.39-2.31,8.21,5.97,6.57,10.63,4.15,1.08-.56,5.08-3.67,5.4-3.72,1.42-.25,1.78,1.28,3.05,1.74,3.67,1.33,5.49-1.17,8.67-2.2.81,1.23,0,2.63.99,4.05,2.42,3.47,10.67.19,13.77-1.08,1.22-.5,2.3-1.47,3.69-1.32.94,3.52,1.61,5.64,5.77,5.74,6.34-1.84,13.41-3.51,18.69-7.69.32-.25,2.37-2.03,2.08-2.36-.96,1.64-12.24,7.45-12.95,6.71Z"/>
  <g>
    <path d="M263.22,483.25c.71.74,11.99-5.07,12.95-6.71.29.33-1.76,2.11-2.08,2.36-5.28,4.18-12.35,5.85-18.69,7.69-4.16-.1-4.83-2.23-5.77-5.74-1.39-.15-2.47.83-3.69,1.32-3.11,1.27-11.35,4.55-13.77,1.08-1-1.42-.18-2.82-.99-4.05-3.19,1.03-5.01,3.52-8.67,2.2-1.27-.46-1.63-1.98-3.05-1.74-.32.06-4.33,3.17-5.4,3.72-4.66,2.42-12.94,4.06-10.63-4.15,1.44-5.11,8.3-10.17,13.31-11.39,2.31-.56,8.08-1.18,8.78,1.92.78,3.44-4,5.76-2.6,9.32s6.88-.19,8.66-1.69c5.41-4.59,11.68-11.87,19.79-10.92,2.39.28,1.72,2.54.48,3.85-2.06,2.19-8.78,5.7-11.77,5.98s-3.93-.8-5.59,2.33c-1.01,1.92-1.09,4.45,1.53,4.85,4.63.71,9.63-1.65,13.52-3.96,4.54-2.69,13.48-8.02,17.05-11.49.89-.86,1.29-1.97,2.27-2.53,1.27,0-.3,2.45-.48,3.12-1.15,4.14-.91,7.15-3.19,11.2-.33.58-2.33,3.05-1.96,3.43ZM249.01,467.73c-3.9.54-8.92,4.57-11.45,7.49.04.88,3.79.02,4.41-.14,2.16-.55,9.08-3.85,9.45-6.15l-.44-1.15c-.44-.26-1.45-.13-1.98-.05ZM220.23,468.21c-4.87.54-11.92,6.28-14.14,10.56-1.7,3.27-.52,6.19,3.5,5.66,2.3-.31,7.86-3.7,9.38-5.49,1.04-1.23,1.24-2.8,2-4.24,1.3-2.48,6.08-7.24-.73-6.49ZM252.98,478.04c-.66.83.1,1.74-.07,2.68-.13.73-.98.95-1.15,1.5-.38,1.26.24,2.29,1.3,2.91,3.23,1.88,7.12-2.09,8.82-4.54,1.11-1.61,4.75-8.12,3.63-9.82l-.84-.11-11.69,7.38Z"/>
    <path d="M289.79,426.25c5.18-.69,5.3,7.01,3.83,10.31-1.37,3.07-5.52,2.81-6.7-.37-1-2.7-.91-9.43,2.87-9.93ZM289.78,427.19c-3.23.73-4.01,11.36,1.38,10.49,2.57-.42,2.54-5.56,2.27-7.52-.25-1.81-1.69-3.41-3.65-2.97Z"/>
    <path d="M327.74,426.9v10.91c0,.13-.52.49-.72.36-1.49-2.84-2.86-6.04-5.04-8.39l-.24,8.39c-.22.1-.72-.21-.72-.36v-10.55c0-.07.49-.44.6-.59l5.04,8.86.37-2.26c.2-1.73-.31-4.14,0-5.76.08-.41.26-.67.72-.6Z"/>
    <path d="M310.71,426.42v9.23c0,.16.64.91.84,1.08,1.7,1.42,4.16.82,4.45-1.56.13-1.08-.13-8.41.24-8.76h.72v9.47c0,.11-.87,1.6-1.11,1.77-1.5,1.06-4.57.86-5.57-.85-.8-1.36-.6-5.67-.52-7.41.04-.85-.11-2.9.96-2.98Z"/>
    <path d="M279.77,427.38v10.19c0,1.06-1.01.61-1.18-.76l.22-9.44h-3s-.6-.72-.6-.72h7.8l.24.48-3.48.24Z"/>
    <path d="M413.9,462.83c-1.24-1.47,2.88-4.51,3.7-3.34.94,1.35-2.21,4.08-3.7,3.34Z"/>
    <path class="st0" d="M407.14,417.07v4.56h1.2v-4.56h3.48l.36.36v4.2h3.6c.12,2.18-.94,4.62-2.03,6.48-5.27,9.04-21.24,20.57-31.13,23.79-4.9,1.6-10.89,3.01-15.99,2.31-.15-.62.12-1.06.46-1.54,1.61-2.31,4.85-4.91,6.84-7.07,2.88-3.12,5.47-6.5,8.63-9.35l.82,1.77.74.15-.85-2.64c5.29-5.19,10.29-10.72,16.32-15.1.66-.26.22,1.06.35,1.2h3.12s.12-3.12.12-3.12l3.96-1.44Z"/>
    <path class="st0" d="M373.27,473.01c4.59-.34,12.28-.35,16.1,2.46s.51,6.15-2.54,7.74c-5.95,3.1-14.51,2.84-21.05,2.16-1.53-.16-11.59-1.64-12.03-2.36-.73-1.2,2.01-3.58,2.89-4.31,4.59-3.83,10.75-5.25,16.62-5.69Z"/>
    <path class="st0" d="M300.58,473.73c7.56-.8,20.17,2.26,27.45,4.8.78.27,1.87.57,2.09,1.46-.19,1.08-9.15,3.9-10.63,4.26-5.77,1.39-14.11,2.14-19.87.62-8.8-2.33-8.55-10.12.95-11.13Z"/>
    <g>
      <path d="M226.44,427.46c1.28,1.45,1.59,6.16,1.05,7.96-1.46,4.85-6.94,4.29-7.63-.78-.2-1.46.04-4.41.54-5.81.9-2.46,4.24-3.41,6.03-1.37ZM223.58,427.18c-3,.41-3.33,5.67-2.76,7.93.74,2.9,3.79,4.03,5.39,1.2.78-1.39.84-4.94.38-6.49-.39-1.28-1.49-2.85-3.01-2.64Z"/>
      <path d="M256.21,426.23c.82-.11,3.4.9,3.41,1.51.02.97-2.06-.42-2.38-.49-1.88-.45-3.41.96-2.85,2.84.47,1.59,4.39,1.84,5.41,3.7,1.84,3.36-2.58,6.21-5.31,4.11-.78-.6-.81-1.64.17-1.37.31.08.64.68,1.25.92,2.64,1.05,5.07-2.36,2.11-4.27-1.35-.87-3.12-.79-4.12-2.36-1.16-1.83.21-4.3,2.3-4.59Z"/>
      <path class="st0" d="M213.08,433.26c.1-.47,1.73-2.9,2.16-3.48,1.61,9.86-2.8,18.19-8.2,25.97-12.43,17.92-34.68,30.95-56.94,29.67-1.27-.07-5.02-.5-5.86-1.34-.2-.2-.42-.3-.14-.6,5.83-3.4,11.26-7.33,16.55-11.51,15.28-12.06,27.19-26.78,41.26-40.04,1.76-1.66,7.68-7.33,9.55-7.96,1.97-.67,2.68,2.83,3.27,4.26l-1.66,3.71c-.43.09-.59-.21-.82-.49-.89-1.1-1.5-3.05-2.33-4.15-.71-.94-1.19-.51-.65.65.39.83,3.08,5.01,3.08,5.32v4.8l.36.35.36-.35c.2-1.38-.28-3.53,0-4.8Z"/>
      <path class="st0" d="M184.3,415.39v6.47l.72.12c-1.4,6.87-4.55,12.66-9.96,17.14-6.43,5.32-13.67,9.75-22.31,9.13s-5.94-9.02-2.26-13.79c5.17-6.72,13.89-12.34,21.58-15.71v3.12s1.68,0,1.68,0v-3.72l1.68-.84v4.2l.4.32,2.95.04v-5.51l5.52-.96Z"/>
      <path class="st0" d="M108.92,478.76c7.01-.94,19.25,2.37,26.01,4.8,1.22.44,2.73.81,1.08,1.89s-5.76,2.09-7.79,2.52c-5.71,1.21-16.02.65-20.76-3.09-3.21-2.53-2.76-5.56,1.46-6.13Z"/>
      <path class="st0" d="M243.55,427.38c1.4.05,3.5-.39,4.33,1.07,1.42,2.48-2.36,4.52-4.33,3.13v-4.2Z"/>
      <path class="st0" d="M376.92,429.06v8.99c0,.06.22.22.2.44l-.17.28c-3.52,4-7.07,7.96-10.7,11.86-1.18,1.27-2.02,3.07-4.07,3.14-1.12.04-2.94-.64-4.02-1.04-5.53-2.07-10.91-7.88-10.71-14.06,1.44-.1,2.12-1.47,3.01-2.39l5.84-.52.78,2.34.97.27,1.76-3.05,6.08-1.48v4.2l.36.36h5.52c.07,0,.44-.49.59-.6l-.36-.36h-4.56c-.09,0-.71-.38-.75-.59l.21-3.19,10.01-4.62Z"/>
      <path class="st0" d="M347.65,427.14l-1.56,7.19-.53.43h-1.48c-.72-2.74-.24-7.71,3.56-7.62Z"/>
      <path class="st0" d="M377.91,431.91l-.15-3.56c2.01-2.24,5.99-.32,4.09,2.41-.9,1.3-2.49,1.3-3.94,1.15Z"/>
      <path class="st0" d="M349.33,428.58c.6.58,1.06,6.29.45,6.68l-.32.06c-.86-.02-1.77-.05-1.82-1.1s.81-4.25,1.2-5.3c.09-.25.13-.7.5-.33Z"/>
      <path class="st0" d="M377.64,437.93v-3.72c0-.22.38-.95.35-1.33,1.28-.79,2.68.41,3.23,1.54l-3.58,3.51Z"/>
      <path class="st0" d="M349.33,436.26c-.01.34-2.09,2.29-2.15,1.32l.46-1.22,1.69-.1Z"/>
      <path class="st0" d="M345.97,437.69c-.64-.37-1.44-.82-1.44-1.68,1.22-.15,1.58.57,1.44,1.68Z"/>
      <path class="st0" d="M223.58,427.18c1.52-.21,2.62,1.36,3.01,2.64.47,1.55.4,5.1-.38,6.49-1.6,2.83-4.65,1.69-5.39-1.2-.58-2.26-.25-7.52,2.76-7.93Z"/>
      <g>
        <path d="M192.69,355.45v58.27l5.52.48v-58.51h4.56l.24,59.83,1.92.6v-60.42h3.12v62.34l2.16,1.2v-63.54l1.2.14.02,64.23.38.87c1.51.97,3.79-1.72,5.36-1.94v-63.3h2.88v61.62l2.17-.87-.02-60.76h1.44v60.19l5.52-1.56v-58.63h3.12v58.75l1.92.24v-58.98h5.04v60.06l1.56,1.08.11-30.1v-31.04s1.93,0,1.93,0v62.71c1.48,2.7,1.94,5.34.72,8.26,2.29-.06,4.67-.31,5.37,2.38.46,1.75-1.18,2.58-1.98,3.69l3.08,5.08-.95.36c-.42-1.76-2.47-5.89-4.67-5.52-.26.04-.85.43-.85.6v4.8l-.36.35-.36-.35v-9.95c-.91.97-1.64,2.12-2.52,3.12-.47.55-1.5,1.17-1.76,1.61-.38.63-.17,2.3-.29,3.05-.53,3.11-6.15,3.47-7.06-.34-.32-1.36-.07-6.68.11-8.29.11-1.02.81-1.15.97-.23.23,1.29.03,4.05.01,5.52,0,.64-.28,1.23-.27,1.91.09,4.38,6.52,3.84,5.54-.6-.94.19-1.68.83-2.62,1.09-.23.07-.79.3-.73-.13l3.36-2.04v-5.99l.36-.36.6.36v5.4c1.05-.88,2.35-2.12,3.08-3.28.37-.58,1.48-3.01,1.48-3.56v-3.72h-2.06c-.18-1.83.76-4.05-1.78-4.56v4.56h-5.04v-6.23h-1.92v6.23h-3.12v-5.99l-5.52,1.2v5.04h-1.44v-4.32l-2.16.72v3.6h-2.88c-.19-.19.39-2.14-.35-1.91s-3.12,1.99-3.19,2.79l1.88,3.73c.86,1.24,1.39,4.33,1.64,6.09,2.55,18.07-15.8,38.27-30.9,45.78-11.03,5.49-27.4,9.35-39.68,7.75-2.63-.34-4.29-1.52-6.93-.64-1.97.66-4,1.88-6.04,2.59-7.52,2.62-18.61,3.84-25.8-.12-2.98-1.64-6.51-5.44-2.99-8.51,4.68-4.08,18.54-.59,24.25.92,2.88.76,8.93,3.57,11.43,3.09,1.82-.35,9.06-5.41,10.95-6.8,18.49-13.63,32.81-33.27,50.76-47.81,2.32-1.88,5.63-3.61,7.68-5.52.45-.42.85-.86,1.08-1.44l-.68-.03c.06-1.37-1.16-1.68-2.08-2.37l-.12,2.4h-3.12v-4.32l-2.16-.72v4.68l-.36.36h-4.2v-6.47l-5.52-.48v6.59c-.41.54-1.27.54-1.68,0v-6.83l-4.93.71c.04,2.78.1,5.18-.43,7.97-2.22,11.67-15.6,23.99-27.03,26.46-10.42,2.25-15.89-4.46-10.93-14.04,3.28-6.34,9.57-11.77,15.72-15.22v-14.03l-3.36.84v14.51h-1.92v-14.15l-1.68.24v13.55l-.35.3-3.01-.18v-12.23c-3.52.91-7.47,2.55-10.72,4.27-4.06,2.16-7.04,4.83-10.51,7.72-.27.22-.39.58-.84.48,5.48-7.13,14.17-10.54,22.07-14.26v-51.91h3.36v50.83l1.68-.6v-50.23h1.92v49.87l3.36-.84v-49.03h1.68v48.91h6.96v-48.91h1.68v49.15l1.68.24v-49.39h3.36v50.47l2.75,1.81,2.77,2.63v-54.91h1.44v57.91c1.52.97,3.57-.14,5.28.12v-57.91l1.68-.36ZM172.07,405.8h-5.4c-.23,0-1.34.34-1.56.6v13.07l6.96-2.88v-10.79ZM173.74,416.11l1.45-.35.19-9.33-1.65-.39v10.07ZM178.78,407.72v7.19c1.41-.35,2.98-.31,4.38-.55.34-.06,1.01-.07.92-.53.08-1.01-.85-2.35-1.46-3.12-.39-.49-3.33-3.53-3.83-3ZM184.3,415.39l-5.52.96v5.51l-2.95-.04-.4-.32v-4.2l-1.68.84v3.72h-1.68s0-3.12,0-3.12c-7.69,3.37-16.41,8.99-21.58,15.71-3.67,4.77-6.63,13.15,2.26,13.79s15.88-3.81,22.31-9.13c5.41-4.47,8.56-10.26,9.96-17.14l-.72-.12v-6.47ZM213.08,433.26c-.28,1.26.2,3.41,0,4.8l-.36.35-.36-.35v-4.8c0-.31-2.69-4.49-3.08-5.32-.54-1.16-.06-1.58.65-.65.83,1.1,1.43,3.05,2.33,4.15.23.28.39.58.82.49l1.66-3.71c-.59-1.43-1.3-4.93-3.27-4.26-1.86.64-7.79,6.3-9.55,7.96-14.07,13.26-25.98,27.98-41.26,40.04-5.29,4.18-10.72,8.1-16.55,11.51-.28.3-.07.4.14.6.84.84,4.59,1.26,5.86,1.34,22.26,1.28,44.51-11.75,56.94-29.67,5.39-7.78,9.81-16.11,8.2-25.97-.42.57-2.05,3-2.16,3.48ZM243.55,427.38v4.2c1.97,1.39,5.75-.65,4.33-3.13-.83-1.46-2.93-1.02-4.33-1.07ZM108.92,478.76c-4.22.57-4.67,3.6-1.46,6.13,4.74,3.74,15.05,4.29,20.76,3.09,2.04-.43,6.13-1.43,7.79-2.52s.15-1.45-1.08-1.89c-6.76-2.43-19-5.75-26.01-4.8Z"/>
        <path d="M329.18,355.69h3.12s.12,61.87.12,61.87l3.29-6.54.19-55.32h5.04v49.39c2.93-.93,1.91-3.29,1.9-5.63,0-.97,0-1.9,0-2.87v-40.89s1.93,0,1.93,0v46.52s5.04-3.28,5.04-3.28l.22-43.13,1.21-.11v42.44l5.52-2.28v-40.16h3.12s-.02,38.98-.02,38.98l.5.46-.5.46.02,15.72,2.16-1.2v-54.43h1.44v53.47c1.18-1.03,4.1-1.43,5.14-2.18.22-.16.37-.28.38-.58v-50.71s4.8,0,4.8,0v50.11l1.92-.24v-49.87h3.36v49.63l1.92.24v-49.87h1.44v50.11l1.8.71.37-.6v-50.23s4.55,0,4.55,0v65.94s-4.14.22-4.14.22l-4.73,4.7c2.15.18,3.58,2.2,2.58,4.26-.31.64-1.63,1.42-1.63,1.97l.49.73h.48c5.34-5.48,10.92-10.98,17.75-14.52v-63.3h3.12v61.62l4.08-.96v-60.66h1.2v60.42l3.84.24v-60.66h4.8v62.95c2.94,7.24-4.81,14.58-9.71,19.06-9.66,8.83-24.19,17.63-37.66,17.75-1.82.02-3.66-.76-5.49.25-1.5.83-5.03,5.09-6.63,6.57-4.03,3.72-8.92,7.62-13.36,10.86-1.75,1.27-5.81,3.39-7.02,4.73-1.33,1.48,1.27,1.9,2.33,2.2,3.58,1.02,7.54,1.72,11.2,2.48,1.38-.09,3.41-2.87,4.57-3.84,6.62-5.55,18.67-7.34,27.1-6.72s16.14,6.93,5,12.42c-8.71,4.3-19.15,2.25-28.47,1.69-1.42.07-5.36-1.51-6.38-1.05-1.69.77-1.43,5.07-1.1,6.6,1.92,8.79,12.43,11.39,20.16,11.75.6.03,1.14-.06,1.7-.24l.34.46c-3.87.29-8.11.04-11.9-.93-4.52-1.15-9.46-4.23-11.13-8.78-1.14-3.09-.86-6.22-.01-9.32-.13-.4-1.22-.62-1.66-.76-4.02-1.21-9.76-2.66-13.86-3.41-.67-.12-1.69-.35-2.32-.32-1.27.06-5.74,2.5-7.44,3.13-7.87,2.93-23.95,6.11-30.94.47-4.2-3.39-3.46-7.46,1.32-9.7,6.61-3.1,20.25-.02,27.34,1.67,2.58.61,6.97,2.32,9.26,2.5,2.99.24,7.25-3.6,9.66-5.4,3.05-2.29,6.36-4.83,9.25-7.29,2.03-1.73,9.47-8.15,10.25-10.14.14-.34.35-.45-.05-.76-.44-.34-4.26-1.33-5.36-1.84-5.88-2.69-9.29-7.6-9.79-14.07-1.64-.02-2.29-2.48-3.09-3.03-.58-.4-2.22-.68-3.03-1.04-2.56-1.14-5.1-2.96-6.32-5.56-.38.04-.45,1.03-.47,1.32-.17,2.17-.56,7.89,2.96,7.22,1.58-.3,1.59-1.29,2.22-1.56,1.1-.47.34.99-.02,1.42-.91,1.08-1.96,1.12-3.31.89-3.73-.64-2.84-6.9-2.52-9.6.22-1.8-.18-1.58-.48-3.23-.21-1.19-.33-2.44-.3-3.66l-2.64-.36v-65.82ZM356.77,414.08v-17.62l-5.52,2.16v21.82l2.76-3.6,2.76-2.75ZM343.1,434.58v-3.72c0-.33.48-2.07.67-2.45.76-1.49,2.57-2.45,4.2-2.02l2.21-4.27c-.14-.5-.37-.72-.39-1.31-.29-7.06.31-14.18.02-21.24l-4.99,3.53-.28,18.66-1.3.09-.36-.37.21-16.5-.48-.25c-.35.41-1.68,1.15-1.68,1.68v15.23h-5.04v-9.59l-2.03,3.6c-1.48,3.78-1.77,7.6-.6,11.5.81-.2,1.4-.88,2.31-.95,1.21-.09,2.65.66,2.97,1.91-.97.26-1.31-.73-2.09-.91-.9-.21-1.93-.03-2.43.82,1.5,3.63,5.36,5.8,9.08,6.56ZM375.72,406.76l-1.92.24v14.51l-.38.33h-4.02s-.4-.33-.4-.33v-13.31l-5.4,2.39-.12,10.67c-.07.78-.84.61-1.44.6v-10.07l-2.16,1.2v8.87h-3.12v-5.51c-2.28,2.05-4.7,5.2-6.04,7.99-.25.52-1.14,2.5-1.13,2.93.01.67,1.17,2.15,1.17,3.11v4.32c0,.07-.33.34-.24.6.7.15,1.39-.21,2.04-.24s3.42.21,3.47-.36c-.6-2.06-1.62-4.72-1.8-6.83-.12-1.32.55-1.11.83-.11.62,2.14.73,4.77,1.67,6.91l2.31-.33,1.55-7.2.7.58-1.42,6.27c-.11.51.24.36.59.34.63-.02,5.07-1.1,5.29-1.43l.37-6.22,5.74-.02c-.14,1.33-2.32.55-3.2.57-2.94.06-1.82,1.91-1.98,4,.24.35,1.93.28,2.4.21,1.01-.16,6.93-3.23,7.57-3.95.23-.26.2-.71.28-.78.11-.1.91-.04,1.34-.22.31-.13,1.36-1.07,1.74-1.38,1.12-.9,4.33-3.98,4.54-5.29.07-2.48-.28-4.96-.24-7.42.03-2.2,1.44-4.81-1.9-4.91v14.15h-1.44v-14.63h-1.92v14.63h-3.36v-14.87ZM407.14,417.07l-3.96,1.44-.12,3.12h-3.12c-.13-.13.31-1.46-.35-1.2-6.03,4.37-11.03,9.91-16.32,15.1l.85,2.64-.74-.15-.82-1.77c-3.16,2.86-5.76,6.24-8.63,9.35-1.99,2.16-5.23,4.76-6.84,7.07-.33.48-.61.91-.46,1.54,5.1.69,11.09-.71,15.99-2.31,9.89-3.23,25.86-14.75,31.13-23.79,1.09-1.86,2.15-4.31,2.03-6.48h-3.6v-4.2l-.36-.36h-3.48v4.56h-1.2v-4.56ZM347.65,427.14c-3.8-.09-4.28,4.88-3.56,7.64h1.48s.53-.45.53-.45l1.56-7.19ZM377.91,431.91c1.44.15,3.04.14,3.94-1.15,1.9-2.73-2.08-4.65-4.09-2.41l.15,3.56ZM349.33,428.58c-.37-.37-.41.08-.5.33-.38,1.05-1.25,4.3-1.2,5.3s.97,1.08,1.82,1.1l.32-.06c.61-.39.15-6.1-.45-6.68ZM376.92,429.06l-10.01,4.62-.21,3.19c.04.21.66.59.75.59h4.56l.36.36c-.15.11-.52.6-.59.6h-5.52l-.36-.36v-4.2l-6.08,1.48-1.76,3.05-.97-.27-.78-2.34-5.84.52c-.89.92-1.57,2.29-3.01,2.39-.2,6.18,5.18,11.99,10.71,14.06,1.08.4,2.9,1.08,4.02,1.04,2.05-.07,2.89-1.87,4.07-3.14,3.63-3.9,7.18-7.86,10.7-11.86l.17-.28c.03-.22-.2-.38-.2-.44v-8.99ZM377.64,437.93l3.58-3.51c-.55-1.13-1.95-2.33-3.23-1.54.03.38-.35,1.11-.35,1.33v3.72ZM345.97,437.69c.15-1.11-.22-1.83-1.44-1.68,0,.86.8,1.31,1.44,1.68ZM349.33,436.26l-1.69.1-.46,1.22c.06.97,2.14-.98,2.15-1.32ZM373.27,473.01c-5.87.44-12.03,1.86-16.62,5.69-.88.74-3.62,3.11-2.89,4.31.44.72,10.5,2.21,12.03,2.36,6.54.67,15.1.94,21.05-2.16,3.05-1.59,6.44-4.86,2.54-7.74s-11.51-2.8-16.1-2.46ZM300.58,473.73c-9.51,1.01-9.75,8.8-.95,11.13,5.76,1.52,14.1.77,19.87-.62,1.48-.36,10.44-3.17,10.63-4.26-.23-.89-1.32-1.19-2.09-1.46-7.28-2.53-19.89-5.6-27.45-4.8Z"/>
        <path d="M432.57,355.69v64.38c0,.25-.32,1.68-.63,1.77h-4.01s-.4-.33-.4-.33v-65.82h5.04Z"/>
        <rect x="260.34" y="355.69" width="4.56" height="65.94"/>
        <polygon points="258.42 355.69 258.43 421.47 257.95 421.75 254.81 421.49 254.82 355.69 258.42 355.69"/>
        <polygon points="270.41 355.69 270.41 421.87 267.66 421.87 267.06 421.51 267.06 355.69 270.41 355.69"/>
        <rect x="437.85" y="355.69" width="3.36" height="65.94"/>
        <polygon points="311.91 355.69 315.03 355.69 315.02 416.24 315.03 421.87 311.91 421.87 311.91 355.69"/>
        <path d="M296.08,355.69v65.94h-3.36c-.06-.18.24-.29.24-.36v-65.58h3.12Z"/>
        <polygon points="422.02 355.69 422.02 421.51 419.12 421.76 419.09 373.79 418.9 355.69 422.02 355.69"/>
        <polygon points="394.43 355.69 394.43 421.63 391.55 421.63 391.31 355.69 394.43 355.69"/>
        <rect x="323.91" y="355.69" width="1.68" height="66.18"/>
        <polygon points="318.63 355.69 318.63 421.87 316.95 421.87 316.94 370.42 316.95 355.69 318.63 355.69"/>
        <polygon points="249.55 355.69 249.55 421.87 247.99 421.87 247.86 355.69 249.55 355.69"/>
        <polygon points="275.69 355.69 277.37 355.69 277.36 384.1 277.37 421.87 275.69 421.87 275.69 355.69"/>
        <polygon points="286.01 355.69 287.45 355.69 287.6 381.99 287.69 409.04 287.45 421.87 286.01 421.87 286.01 355.69"/>
        <polygon points="434.49 355.69 435.93 355.69 435.91 414.09 436.11 421.52 434.49 421.87 434.49 355.69"/>
        <rect x="301.6" y="355.69" width="1.44" height="66.18"/>
        <rect x="282.65" y="355.69" width="1.44" height="66.18"/>
        <path d="M305.2,355.69h1.44c-.18.36-.24.66-.25,1.07-.48,19.75.26,39.84,0,59.47-.02,1.75-.15,3.73.25,5.4l-1.44-.12v-65.82Z"/>
        <path class="st0" d="M172.07,405.8v10.79l-6.96,2.88v-13.07c.22-.26,1.33-.6,1.56-.6h5.4Z"/>
        <path class="st0" d="M178.78,407.72c.51-.53,3.44,2.51,3.83,3,.62.77,1.54,2.11,1.46,3.12.1.46-.58.47-.92.53-1.4.24-2.97.19-4.38.55v-7.19Z"/>
        <polygon class="st0" points="173.74 416.11 173.74 406.04 175.39 406.44 175.2 415.77 173.74 416.11"/>
        <path class="st0" d="M375.72,406.76v14.87h3.36v-14.63h1.92v14.63h1.44v-14.15c3.34.11,1.94,2.71,1.9,4.91-.04,2.46.31,4.94.24,7.42-.21,1.31-3.42,4.39-4.54,5.29-.38.31-1.43,1.25-1.74,1.38-.43.18-1.23.12-1.34.22-.08.07-.05.52-.28.78-.64.72-6.56,3.8-7.57,3.95-.48.07-2.16.14-2.4-.21.16-2.09-.96-3.94,1.98-4,.88-.02,3.05.76,3.2-.57l-5.74.02-.37,6.22c-.22.33-4.66,1.41-5.29,1.43-.35.01-.7.16-.59-.34l1.42-6.27-.7-.58-1.55,7.2-2.31.33c-.94-2.14-1.05-4.78-1.67-6.91-.29-1-.95-1.21-.83.11.18,2.11,1.21,4.76,1.8,6.83-.05.57-2.83.33-3.47.36s-1.34.39-2.04.24c-.09-.26.24-.52.24-.6v-4.32c0-.97-1.16-2.44-1.17-3.11,0-.43.88-2.4,1.13-2.93,1.34-2.78,3.76-5.93,6.04-7.99v5.51h3.12v-8.87l2.16-1.2v10.07c.6,0,1.37.18,1.44-.6l.12-10.67,5.4-2.39v13.31l.4.32h4.02s.38-.32.38-.32v-14.51l1.92-.24Z"/>
        <path class="st0" d="M343.1,434.58c-3.72-.76-7.58-2.93-9.08-6.56.5-.85,1.53-1.03,2.43-.82.78.18,1.12,1.17,2.09.91-.32-1.25-1.76-1.99-2.97-1.91-.91.06-1.5.75-2.31.95-1.17-3.91-.87-7.72.6-11.5l2.03-3.6v9.59h5.04v-15.23c0-.53,1.33-1.27,1.68-1.68l.48.25-.21,16.5.36.37,1.3-.09.28-18.66,4.99-3.53c.29,7.06-.3,14.17-.02,21.24.02.59.25.82.39,1.31l-2.21,4.27c-1.64-.43-3.45.54-4.2,2.02-.19.38-.67,2.11-.67,2.45v3.72Z"/>
        <polygon class="st0" points="356.77 414.08 354.01 416.83 351.25 420.43 351.25 398.61 356.77 396.45 356.77 414.08"/>
      </g>
    </g>
    <g>
      <path d="M435.99,483.18c1.47,1.21,6.36.06,8.14-.48,4.11-1.25,7.77-3.63,11.34-5.93l-1.58,1.54c-3.19,2.11-6.73,4.07-10.43,5.16s-8.53,2.57-10.2-2.01c-.26-.7-.08-2.31-1.06-2.29-.36,0-5.38,2.75-6.44,3.16-2.64,1.04-6.2,2.22-8.99,1.23-.84-.3-1.34-1.07-2.19-1.02-2.77,7.22-6.9,13.86-11.43,20.1-3.32,4.58-9.72,13.12-14.8,15.42-2.15.97-5.13,1.09-4.95-2.05.32-5.36,11.35-18.12,15.11-22.57,2.96-3.51,6.13-6.83,9.07-10.35.08-.37.18-.64-.32-.57-1.71.24-4.28,1.97-6.34,2.29-1.18.19-3.64.4-4.3-.76-1.12-2.68.89-4.67,2.49-6.57s3.72-4.09,5.51-5.76c.59-.55,4.24-3.74,4.62-3.8,2.96.77-1.67,3.55-2.7,4.52-1.53,1.44-7.49,7.27-7.92,8.87-.19.72-.35,2.13.26,2.63,1.16.82,5.33-.88,6.67-1.45,3.37-1.46,4.81-2.66,7.34-5.13,13.06-12.74,25.34-26.51,40.23-37.23,2.59-1.87,8.75-6.36,11.54-7.17,2.16-.62,4.69.01,3.38,2.66s-7.15,7.94-9.56,10.11c-11.4,10.24-24.67,20.37-37.82,28.13-2.29,1.35-5.42,3.34-5.33,6.37.11,3.94,6.45,2.79,8.9,1.99,8.85-2.88,12.8-10.44,20.82-13.95,1.67-.73,9.98-3.86,9.31.17-.5,2.99-7.78,6.55-10.52,7.25-2.06.53-4.26.41-6.06.9-2.52.68-3.54,5.15-1.79,6.59ZM466.63,434.1c-2.74.17-5.38,2.03-7.66,3.5-9.95,6.42-19.01,15.58-27.49,23.83-3.13,3.05-7.49,6.93-10.19,10.2-.22.27-.58.39-.48.84,3.22-.96,5.98-3.19,8.71-5.08,10.45-7.24,25.55-18.17,33.87-27.53,1.39-1.56,3.39-3.57,3.23-5.76ZM451.48,467.48c-2.04.07-4.89,1.67-6.66,2.72-2.29,1.36-10.37,6.77-2.17,5.27,3.18-.58,6.5-2.4,8.87-4.57,1.29-1.18,3.11-3.53-.04-3.42ZM413.38,480.61c-.52-.35-2.01,1.38-2.4,1.79-6.63,6.85-14,15.33-19.76,22.93-1.61,2.13-4.98,6.89-5.87,9.24-1.47,3.87,1.22,3.69,3.88,2.2,7.82-4.39,18.99-22.05,22.68-30.32.41-.93,2.46-5.17,1.47-5.84Z"/>
      <path class="st0" d="M413.38,480.61c.99.67-1.06,4.91-1.47,5.84-3.69,8.27-14.86,25.93-22.68,30.32-2.66,1.49-5.35,1.67-3.88-2.2.9-2.35,4.26-7.11,5.87-9.24,5.76-7.6,13.13-16.08,19.76-22.93.4-.41,1.89-2.14,2.4-1.79Z"/>
      <path class="st0" d="M466.63,434.1c.16,2.19-1.85,4.19-3.23,5.76-8.31,9.36-23.42,20.29-33.87,27.53-2.73,1.89-5.49,4.12-8.71,5.08-.1-.45.25-.57.48-.84,2.7-3.27,7.06-7.15,10.19-10.2,8.48-8.25,17.55-17.41,27.49-23.83,2.28-1.47,4.91-3.32,7.66-3.5Z"/>
      <path class="st0" d="M451.48,467.48c3.15-.11,1.34,2.24.04,3.42-2.37,2.17-5.69,3.98-8.87,4.57-8.21,1.5-.13-3.91,2.17-5.27,1.77-1.05,4.61-2.65,6.66-2.72Z"/>
    </g>
    <path class="st0" d="M220.23,468.21c6.81-.75,2.04,4.01.73,6.49-.76,1.44-.96,3.01-2,4.24-1.52,1.79-7.07,5.19-9.38,5.49-4.03.53-5.2-2.38-3.5-5.66,2.22-4.28,9.27-10.02,14.14-10.56Z"/>
    <path class="st0" d="M252.98,478.04l11.69-7.38.84.11c1.12,1.7-2.51,8.2-3.63,9.82-1.69,2.45-5.58,6.43-8.82,4.54-1.07-.62-1.68-1.65-1.3-2.91.17-.55,1.02-.77,1.15-1.5.17-.94-.59-1.85.07-2.68Z"/>
    <path class="st0" d="M249.01,467.73c.53-.07,1.54-.21,1.98.05l.44,1.15c-.37,2.3-7.3,5.6-9.45,6.15-.62.16-4.37,1.02-4.41.14,2.53-2.92,7.55-6.95,11.45-7.49Z"/>
    <path class="st0" d="M289.78,427.19c1.96-.44,3.4,1.15,3.65,2.97.27,1.96.3,7.1-2.27,7.52-5.38.87-4.61-9.75-1.38-10.49Z"/>
  </g>
</svg>