<svg
   id="Layer_1"
   version="1.1"
   viewBox="0 0 564.2193 252.26546"
   width="564.2193"
   height="252.26546"
   xmlns="http://www.w3.org/2000/svg">
  <defs
     id="defs1">
    <style
       id="style1">
      .st0 {
        fill: #fff;
      }
    </style>
  </defs>
  <g
     id="g49"
     transform="translate(198.37577,-208.95064)">
    <g
       id="g42" />
    <g
       id="g50"
       transform="matrix(1.5455967,0,0,1.5455967,-361.39488,-232.80195)">
      <path
         d="m 265.34306,413.61362 c 0.71,0.74 11.99,-5.07 12.95,-6.71 0.29,0.33 -1.76,2.11 -2.08,2.36 -5.28,4.18 -12.35,5.85 -18.69,7.69 -4.16,-0.1 -4.83,-2.23 -5.77,-5.74 -1.39,-0.15 -2.47,0.83 -3.69,1.32 -3.11,1.27 -11.35,4.55 -13.77,1.08 -1,-1.42 -0.18,-2.82 -0.99,-4.05 -3.19,1.03 -5.01,3.52 -8.67,2.2 -1.27,-0.46 -1.63,-1.98 -3.05,-1.74 -0.32,0.06 -4.33,3.17 -5.4,3.72 -4.66,2.42 -12.94,4.06 -10.63,-4.15 1.44,-5.11 8.3,-10.17 13.31,-11.39 2.31,-0.56 8.08,-1.18 8.78,1.92 0.78,3.44 -4,5.76 -2.6,9.32 1.4,3.56 6.88,-0.19 8.66,-1.69 5.41,-4.59 11.68,-11.87 19.79,-10.92 2.39,0.28 1.72,2.54 0.48,3.85 -2.06,2.19 -8.78,5.7 -11.77,5.98 -2.99,0.28 -3.93,-0.8 -5.59,2.33 -1.01,1.92 -1.09,4.45 1.53,4.85 4.63,0.71 9.63,-1.65 13.52,-3.96 4.54,-2.69 13.48,-8.02 17.05,-11.49 0.89,-0.86 1.29,-1.97 2.27,-2.53 1.27,0 -0.3,2.45 -0.48,3.12 -1.15,4.14 -0.91,7.15 -3.19,11.2 -0.33,0.58 -2.33,3.05 -1.96,3.43 z m -14.21,-15.52 c -3.9,0.54 -8.92,4.57 -11.45,7.49 0.04,0.88 3.79,0.02 4.41,-0.14 2.16,-0.55 9.08,-3.85 9.45,-6.15 l -0.44,-1.15 c -0.44,-0.26 -1.45,-0.13 -1.98,-0.05 z m -28.78,0.48 c -4.87,0.54 -11.92,6.28 -14.14,10.56 -1.7,3.27 -0.52,6.19 3.5,5.66 2.3,-0.31 7.86,-3.7 9.38,-5.49 1.04,-1.23 1.24,-2.8 2,-4.24 1.3,-2.48 6.08,-7.24 -0.73,-6.49 z m 32.75,9.83 c -0.66,0.83 0.1,1.74 -0.07,2.68 -0.13,0.73 -0.98,0.95 -1.15,1.5 -0.38,1.26 0.24,2.29 1.3,2.91 3.23,1.88 7.12,-2.09 8.82,-4.54 1.11,-1.61 4.75,-8.12 3.63,-9.82 l -0.84,-0.11 z"
         id="path2"
         style="fill:#ffffff;fill-opacity:1" />
      <path
         d="m 291.91306,356.61362 c 5.18,-0.69 5.3,7.01 3.83,10.31 -1.37,3.07 -5.52,2.81 -6.7,-0.37 -1,-2.7 -0.91,-9.43 2.87,-9.93 z m -0.01,0.94 c -3.23,0.73 -4.01,11.36 1.38,10.49 2.57,-0.42 2.54,-5.56 2.27,-7.52 -0.25,-1.81 -1.69,-3.41 -3.65,-2.97 z"
         id="path3"
         style="fill:#ffffff;fill-opacity:1" />
      <path
         d="m 329.86306,357.26362 v 10.91 c 0,0.13 -0.52,0.49 -0.72,0.36 -1.49,-2.84 -2.86,-6.04 -5.04,-8.39 l -0.24,8.39 c -0.22,0.1 -0.72,-0.21 -0.72,-0.36 v -10.55 c 0,-0.07 0.49,-0.44 0.6,-0.59 l 5.04,8.86 0.37,-2.26 c 0.2,-1.73 -0.31,-4.14 0,-5.76 0.08,-0.41 0.26,-0.67 0.72,-0.6 z"
         id="path4"
         style="fill:#ffffff;fill-opacity:1" />
      <path
         d="m 312.83306,356.78362 v 9.23 c 0,0.16 0.64,0.91 0.84,1.08 1.7,1.42 4.16,0.82 4.45,-1.56 0.13,-1.08 -0.13,-8.41 0.24,-8.76 h 0.72 v 9.47 c 0,0.11 -0.87,1.6 -1.11,1.77 -1.5,1.06 -4.57,0.86 -5.57,-0.85 -0.8,-1.36 -0.6,-5.67 -0.52,-7.41 0.04,-0.85 -0.11,-2.9 0.96,-2.98 z"
         id="path5"
         style="fill:#ffffff;fill-opacity:1" />
      <path
         d="m 281.89306,357.74362 v 10.19 c 0,1.06 -1.01,0.61 -1.18,-0.76 l 0.22,-9.44 h -3 c 0,0 -0.6,-0.72 -0.6,-0.72 h 7.8 l 0.24,0.48 -3.48,0.24 z"
         id="path6"
         style="fill:#ffffff;fill-opacity:1" />
      <path
         d="m 416.02306,393.19362 c -1.24,-1.47 2.88,-4.51 3.7,-3.34 0.94,1.35 -2.21,4.08 -3.7,3.34 z"
         id="path7"
         style="fill:#ffffff;fill-opacity:1" />
      <path
         d="m 228.56306,357.82362 c 1.28,1.45 1.59,6.16 1.05,7.96 -1.46,4.85 -6.94,4.29 -7.63,-0.78 -0.2,-1.46 0.04,-4.41 0.54,-5.81 0.9,-2.46 4.24,-3.41 6.03,-1.37 z m -2.86,-0.28 c -3,0.41 -3.33,5.67 -2.76,7.93 0.74,2.9 3.79,4.03 5.39,1.2 0.78,-1.39 0.84,-4.94 0.38,-6.49 -0.39,-1.28 -1.49,-2.85 -3.01,-2.64 z"
         id="path11"
         style="fill:#ffffff;fill-opacity:1" />
      <path
         d="m 258.33306,356.59362 c 0.82,-0.11 3.4,0.9 3.41,1.51 0.02,0.97 -2.06,-0.42 -2.38,-0.49 -1.88,-0.45 -3.41,0.96 -2.85,2.84 0.47,1.59 4.39,1.84 5.41,3.7 1.84,3.36 -2.58,6.21 -5.31,4.11 -0.78,-0.6 -0.81,-1.64 0.17,-1.37 0.31,0.08 0.64,0.68 1.25,0.92 2.64,1.05 5.07,-2.36 2.11,-4.27 -1.35,-0.87 -3.12,-0.79 -4.12,-2.36 -1.16,-1.83 0.21,-4.3 2.3,-4.59 z"
         id="path12"
         style="fill:#ffffff;fill-opacity:1" />
      <path
         class="st0"
         d="m 351.45306,366.62362 c -0.01,0.34 -2.09,2.29 -2.15,1.32 l 0.46,-1.22 z"
         id="path22"
         style="fill:#ffffff;fill-opacity:1" />
      <path
         class="st0"
         d="m 348.09306,368.05362 c -0.64,-0.37 -1.44,-0.82 -1.44,-1.68 1.22,-0.15 1.58,0.57 1.44,1.68 z"
         id="path23"
         style="fill:#ffffff;fill-opacity:1" />
      <g
         id="g41"
         transform="translate(2.12306,-69.636378)"
         style="fill:#ffffff;fill-opacity:1">
        <path
           d="m 192.69,355.45 v 58.27 l 5.52,0.48 v -58.51 h 4.56 l 0.24,59.83 1.92,0.6 V 355.7 h 3.12 v 62.34 l 2.16,1.2 V 355.7 l 1.2,0.14 0.02,64.23 0.38,0.87 c 1.51,0.97 3.79,-1.72 5.36,-1.94 v -63.3 h 2.88 v 61.62 l 2.17,-0.87 -0.02,-60.76 h 1.44 v 60.19 l 5.52,-1.56 v -58.63 h 3.12 v 58.75 l 1.92,0.24 V 355.7 h 5.04 v 60.06 l 1.56,1.08 0.11,-30.1 V 355.7 c 0,0 1.93,0 1.93,0 v 62.71 c 1.48,2.7 1.94,5.34 0.72,8.26 2.29,-0.06 4.67,-0.31 5.37,2.38 0.46,1.75 -1.18,2.58 -1.98,3.69 l 3.08,5.08 -0.95,0.36 c -0.42,-1.76 -2.47,-5.89 -4.67,-5.52 -0.26,0.04 -0.85,0.43 -0.85,0.6 v 4.8 l -0.36,0.35 -0.36,-0.35 v -9.95 c -0.91,0.97 -1.64,2.12 -2.52,3.12 -0.47,0.55 -1.5,1.17 -1.76,1.61 -0.38,0.63 -0.17,2.3 -0.29,3.05 -0.53,3.11 -6.15,3.47 -7.06,-0.34 -0.32,-1.36 -0.07,-6.68 0.11,-8.29 0.11,-1.02 0.81,-1.15 0.97,-0.23 0.23,1.29 0.03,4.05 0.01,5.52 0,0.64 -0.28,1.23 -0.27,1.91 0.09,4.38 6.52,3.84 5.54,-0.6 -0.94,0.19 -1.68,0.83 -2.62,1.09 -0.23,0.07 -0.79,0.3 -0.73,-0.13 l 3.36,-2.04 v -5.99 l 0.36,-0.36 0.6,0.36 v 5.4 c 1.05,-0.88 2.35,-2.12 3.08,-3.28 0.37,-0.58 1.48,-3.01 1.48,-3.56 v -3.72 h -2.06 c -0.18,-1.83 0.76,-4.05 -1.78,-4.56 v 4.56 h -5.04 v -6.23 h -1.92 v 6.23 h -3.12 v -5.99 l -5.52,1.2 v 5.04 h -1.44 v -4.32 l -2.16,0.72 v 3.6 h -2.88 c -0.19,-0.19 0.39,-2.14 -0.35,-1.91 -0.74,0.23 -3.12,1.99 -3.19,2.79 l 1.88,3.73 c 0.86,1.24 1.39,4.33 1.64,6.09 2.55,18.07 -15.8,38.27 -30.9,45.78 -11.03,5.49 -27.4,9.35 -39.68,7.75 -2.63,-0.34 -4.29,-1.52 -6.93,-0.64 -1.97,0.66 -4,1.88 -6.04,2.59 -7.52,2.62 -18.61,3.84 -25.8,-0.12 -2.98,-1.64 -6.51,-5.44 -2.99,-8.51 4.68,-4.08 18.54,-0.59 24.25,0.92 2.88,0.76 8.93,3.57 11.43,3.09 1.82,-0.35 9.06,-5.41 10.95,-6.8 18.49,-13.63 32.81,-33.27 50.76,-47.81 2.32,-1.88 5.63,-3.61 7.68,-5.52 0.45,-0.42 0.85,-0.86 1.08,-1.44 l -0.68,-0.03 c 0.06,-1.37 -1.16,-1.68 -2.08,-2.37 l -0.12,2.4 h -3.12 v -4.32 l -2.16,-0.72 v 4.68 l -0.36,0.36 h -4.2 v -6.47 l -5.52,-0.48 v 6.59 c -0.41,0.54 -1.27,0.54 -1.68,0 v -6.83 l -4.93,0.71 c 0.04,2.78 0.1,5.18 -0.43,7.97 -2.22,11.67 -15.6,23.99 -27.03,26.46 -10.42,2.25 -15.89,-4.46 -10.93,-14.04 3.28,-6.34 9.57,-11.77 15.72,-15.22 v -14.03 l -3.36,0.84 v 14.51 h -1.92 v -14.15 l -1.68,0.24 v 13.55 l -0.35,0.3 -3.01,-0.18 v -12.23 c -3.52,0.91 -7.47,2.55 -10.72,4.27 -4.06,2.16 -7.04,4.83 -10.51,7.72 -0.27,0.22 -0.39,0.58 -0.84,0.48 5.48,-7.13 14.17,-10.54 22.07,-14.26 v -51.91 h 3.36 v 50.83 l 1.68,-0.6 v -50.23 h 1.92 v 49.87 l 3.36,-0.84 v -49.03 h 1.68 v 48.91 h 6.96 v -48.91 h 1.68 v 49.15 l 1.68,0.24 v -49.39 h 3.36 v 50.47 l 2.75,1.81 2.77,2.63 v -54.91 h 1.44 v 57.91 c 1.52,0.97 3.57,-0.14 5.28,0.12 v -57.91 l 1.68,-0.36 z m -20.62,50.35 h -5.4 c -0.23,0 -1.34,0.34 -1.56,0.6 v 13.07 l 6.96,-2.88 z m 1.67,10.31 1.45,-0.35 0.19,-9.33 -1.65,-0.39 v 10.07 z m 5.04,-8.39 v 7.19 c 1.41,-0.35 2.98,-0.31 4.38,-0.55 0.34,-0.06 1.01,-0.07 0.92,-0.53 0.08,-1.01 -0.85,-2.35 -1.46,-3.12 -0.39,-0.49 -3.33,-3.53 -3.83,-3 z m 5.52,7.67 -5.52,0.96 v 5.51 l -2.95,-0.04 -0.4,-0.32 v -4.2 l -1.68,0.84 v 3.72 h -1.68 c 0,0 0,-3.12 0,-3.12 -7.69,3.37 -16.41,8.99 -21.58,15.71 -3.67,4.77 -6.63,13.15 2.26,13.79 8.89,0.64 15.88,-3.81 22.31,-9.13 5.41,-4.47 8.56,-10.26 9.96,-17.14 l -0.72,-0.12 v -6.47 z m 28.78,17.87 c -0.28,1.26 0.2,3.41 0,4.8 l -0.36,0.35 -0.36,-0.35 v -4.8 c 0,-0.31 -2.69,-4.49 -3.08,-5.32 -0.54,-1.16 -0.06,-1.58 0.65,-0.65 0.83,1.1 1.43,3.05 2.33,4.15 0.23,0.28 0.39,0.58 0.82,0.49 l 1.66,-3.71 c -0.59,-1.43 -1.3,-4.93 -3.27,-4.26 -1.86,0.64 -7.79,6.3 -9.55,7.96 -14.07,13.26 -25.98,27.98 -41.26,40.04 -5.29,4.18 -10.72,8.1 -16.55,11.51 -0.28,0.3 -0.07,0.4 0.14,0.6 0.84,0.84 4.59,1.26 5.86,1.34 22.26,1.28 44.51,-11.75 56.94,-29.67 5.39,-7.78 9.81,-16.11 8.2,-25.97 -0.42,0.57 -2.05,3 -2.16,3.48 z m 30.47,-5.88 v 4.2 c 1.97,1.39 5.75,-0.65 4.33,-3.13 -0.83,-1.46 -2.93,-1.02 -4.33,-1.07 z m -134.63,51.38 c -4.22,0.57 -4.67,3.6 -1.46,6.13 4.74,3.74 15.05,4.29 20.76,3.09 2.04,-0.43 6.13,-1.43 7.79,-2.52 1.66,-1.09 0.15,-1.45 -1.08,-1.89 -6.76,-2.43 -19,-5.75 -26.01,-4.8 z"
           id="path25"
           style="fill:#ffffff;fill-opacity:1" />
        <path
           d="m 329.18,355.69 h 3.12 c 0,0 0.12,61.87 0.12,61.87 l 3.29,-6.54 0.19,-55.32 h 5.04 v 49.39 c 2.93,-0.93 1.91,-3.29 1.9,-5.63 0,-0.97 0,-1.9 0,-2.87 V 355.7 c 0,0 1.93,0 1.93,0 v 46.52 c 0,0 5.04,-3.28 5.04,-3.28 l 0.22,-43.13 1.21,-0.11 v 42.44 l 5.52,-2.28 V 355.7 h 3.12 c 0,0 -0.02,38.98 -0.02,38.98 l 0.5,0.46 -0.5,0.46 0.02,15.72 2.16,-1.2 v -54.43 h 1.44 v 53.47 c 1.18,-1.03 4.1,-1.43 5.14,-2.18 0.22,-0.16 0.37,-0.28 0.38,-0.58 v -50.71 c 0,0 4.8,0 4.8,0 v 50.11 l 1.92,-0.24 v -49.87 h 3.36 v 49.63 l 1.92,0.24 v -49.87 h 1.44 v 50.11 l 1.8,0.71 0.37,-0.6 v -50.23 c 0,0 4.55,0 4.55,0 v 65.94 c 0,0 -4.14,0.22 -4.14,0.22 l -4.73,4.7 c 2.15,0.18 3.58,2.2 2.58,4.26 -0.31,0.64 -1.63,1.42 -1.63,1.97 l 0.49,0.73 h 0.48 c 5.34,-5.48 10.92,-10.98 17.75,-14.52 v -63.3 h 3.12 v 61.62 l 4.08,-0.96 v -60.66 h 1.2 v 60.42 l 3.84,0.24 v -60.66 h 4.8 v 62.95 c 2.94,7.24 -4.81,14.58 -9.71,19.06 -9.66,8.83 -24.19,17.63 -37.66,17.75 -1.82,0.02 -3.66,-0.76 -5.49,0.25 -1.5,0.83 -5.03,5.09 -6.63,6.57 -4.03,3.72 -8.92,7.62 -13.36,10.86 -1.75,1.27 -5.81,3.39 -7.02,4.73 -1.33,1.48 1.27,1.9 2.33,2.2 3.58,1.02 7.54,1.72 11.2,2.48 1.38,-0.09 3.41,-2.87 4.57,-3.84 6.62,-5.55 18.67,-7.34 27.1,-6.72 8.43,0.62 16.14,6.93 5,12.42 -8.71,4.3 -19.15,2.25 -28.47,1.69 -1.42,0.07 -5.36,-1.51 -6.38,-1.05 -1.69,0.77 -1.43,5.07 -1.1,6.6 1.92,8.79 12.43,11.39 20.16,11.75 0.6,0.03 1.14,-0.06 1.7,-0.24 l 0.34,0.46 c -3.87,0.29 -8.11,0.04 -11.9,-0.93 -4.52,-1.15 -9.46,-4.23 -11.13,-8.78 -1.14,-3.09 -0.86,-6.22 -0.01,-9.32 -0.13,-0.4 -1.22,-0.62 -1.66,-0.76 -4.02,-1.21 -9.76,-2.66 -13.86,-3.41 -0.67,-0.12 -1.69,-0.35 -2.32,-0.32 -1.27,0.06 -5.74,2.5 -7.44,3.13 -7.87,2.93 -23.95,6.11 -30.94,0.47 -4.2,-3.39 -3.46,-7.46 1.32,-9.7 6.61,-3.1 20.25,-0.02 27.34,1.67 2.58,0.61 6.97,2.32 9.26,2.5 2.99,0.24 7.25,-3.6 9.66,-5.4 3.05,-2.29 6.36,-4.83 9.25,-7.29 2.03,-1.73 9.47,-8.15 10.25,-10.14 0.14,-0.34 0.35,-0.45 -0.05,-0.76 -0.44,-0.34 -4.26,-1.33 -5.36,-1.84 -5.88,-2.69 -9.29,-7.6 -9.79,-14.07 -1.64,-0.02 -2.29,-2.48 -3.09,-3.03 -0.58,-0.4 -2.22,-0.68 -3.03,-1.04 -2.56,-1.14 -5.1,-2.96 -6.32,-5.56 -0.38,0.04 -0.45,1.03 -0.47,1.32 -0.17,2.17 -0.56,7.89 2.96,7.22 1.58,-0.3 1.59,-1.29 2.22,-1.56 1.1,-0.47 0.34,0.99 -0.02,1.42 -0.91,1.08 -1.96,1.12 -3.31,0.89 -3.73,-0.64 -2.84,-6.9 -2.52,-9.6 0.22,-1.8 -0.18,-1.58 -0.48,-3.23 -0.21,-1.19 -0.33,-2.44 -0.3,-3.66 l -2.64,-0.36 v -65.82 z m 27.59,58.39 v -17.62 l -5.52,2.16 v 21.82 l 2.76,-3.6 2.76,-2.75 z m -13.67,20.5 v -3.72 c 0,-0.33 0.48,-2.07 0.67,-2.45 0.76,-1.49 2.57,-2.45 4.2,-2.02 l 2.21,-4.27 c -0.14,-0.5 -0.37,-0.72 -0.39,-1.31 -0.29,-7.06 0.31,-14.18 0.02,-21.24 l -4.99,3.53 -0.28,18.66 -1.3,0.09 -0.36,-0.37 0.21,-16.5 -0.48,-0.25 c -0.35,0.41 -1.68,1.15 -1.68,1.68 v 15.23 h -5.04 v -9.59 l -2.03,3.6 c -1.48,3.78 -1.77,7.6 -0.6,11.5 0.81,-0.2 1.4,-0.88 2.31,-0.95 1.21,-0.09 2.65,0.66 2.97,1.91 -0.97,0.26 -1.31,-0.73 -2.09,-0.91 -0.9,-0.21 -1.93,-0.03 -2.43,0.82 1.5,3.63 5.36,5.8 9.08,6.56 z m 32.62,-27.82 -1.92,0.24 v 14.51 l -0.38,0.33 h -4.02 c 0,0 -0.4,-0.33 -0.4,-0.33 V 408.2 l -5.4,2.39 -0.12,10.67 c -0.07,0.78 -0.84,0.61 -1.44,0.6 v -10.07 l -2.16,1.2 v 8.87 h -3.12 v -5.51 c -2.28,2.05 -4.7,5.2 -6.04,7.99 -0.25,0.52 -1.14,2.5 -1.13,2.93 0.01,0.67 1.17,2.15 1.17,3.11 v 4.32 c 0,0.07 -0.33,0.34 -0.24,0.6 0.7,0.15 1.39,-0.21 2.04,-0.24 0.65,-0.03 3.42,0.21 3.47,-0.36 -0.6,-2.06 -1.62,-4.72 -1.8,-6.83 -0.12,-1.32 0.55,-1.11 0.83,-0.11 0.62,2.14 0.73,4.77 1.67,6.91 l 2.31,-0.33 1.55,-7.2 0.7,0.58 -1.42,6.27 c -0.11,0.51 0.24,0.36 0.59,0.34 0.63,-0.02 5.07,-1.1 5.29,-1.43 l 0.37,-6.22 5.74,-0.02 c -0.14,1.33 -2.32,0.55 -3.2,0.57 -2.94,0.06 -1.82,1.91 -1.98,4 0.24,0.35 1.93,0.28 2.4,0.21 1.01,-0.16 6.93,-3.23 7.57,-3.95 0.23,-0.26 0.2,-0.71 0.28,-0.78 0.11,-0.1 0.91,-0.04 1.34,-0.22 0.31,-0.13 1.36,-1.07 1.74,-1.38 1.12,-0.9 4.33,-3.98 4.54,-5.29 0.07,-2.48 -0.28,-4.96 -0.24,-7.42 0.03,-2.2 1.44,-4.81 -1.9,-4.91 v 14.15 h -1.44 v -14.63 h -1.92 v 14.63 h -3.36 v -14.87 z m 31.42,10.31 -3.96,1.44 -0.12,3.12 h -3.12 c -0.13,-0.13 0.31,-1.46 -0.35,-1.2 -6.03,4.37 -11.03,9.91 -16.32,15.1 l 0.85,2.64 -0.74,-0.15 -0.82,-1.77 c -3.16,2.86 -5.76,6.24 -8.63,9.35 -1.99,2.16 -5.23,4.76 -6.84,7.07 -0.33,0.48 -0.61,0.91 -0.46,1.54 5.1,0.69 11.09,-0.71 15.99,-2.31 9.89,-3.23 25.86,-14.75 31.13,-23.79 1.09,-1.86 2.15,-4.31 2.03,-6.48 h -3.6 v -4.2 l -0.36,-0.36 h -3.48 v 4.56 h -1.2 z m -59.49,10.07 c -3.8,-0.09 -4.28,4.88 -3.56,7.64 h 1.48 c 0,0 0.53,-0.45 0.53,-0.45 l 1.56,-7.19 z m 30.26,4.77 c 1.44,0.15 3.04,0.14 3.94,-1.15 1.9,-2.73 -2.08,-4.65 -4.09,-2.41 z m -28.58,-3.33 c -0.37,-0.37 -0.41,0.08 -0.5,0.33 -0.38,1.05 -1.25,4.3 -1.2,5.3 0.05,1 0.97,1.08 1.82,1.1 l 0.32,-0.06 c 0.61,-0.39 0.15,-6.1 -0.45,-6.68 z m 27.59,0.48 -10.01,4.62 -0.21,3.19 c 0.04,0.21 0.66,0.59 0.75,0.59 h 4.56 l 0.36,0.36 c -0.15,0.11 -0.52,0.6 -0.59,0.6 h -5.52 l -0.36,-0.36 v -4.2 l -6.08,1.48 -1.76,3.05 -0.97,-0.27 -0.78,-2.34 -5.84,0.52 c -0.89,0.92 -1.57,2.29 -3.01,2.39 -0.2,6.18 5.18,11.99 10.71,14.06 1.08,0.4 2.9,1.08 4.02,1.04 2.05,-0.07 2.89,-1.87 4.07,-3.14 3.63,-3.9 7.18,-7.86 10.7,-11.86 l 0.17,-0.28 c 0.03,-0.22 -0.2,-0.38 -0.2,-0.44 v -8.99 z m 0.72,8.87 3.58,-3.51 c -0.55,-1.13 -1.95,-2.33 -3.23,-1.54 0.03,0.38 -0.35,1.11 -0.35,1.33 z m -31.67,-0.24 c 0.15,-1.11 -0.22,-1.83 -1.44,-1.68 0,0.86 0.8,1.31 1.44,1.68 z m 3.36,-1.43 -1.69,0.1 -0.46,1.22 c 0.06,0.97 2.14,-0.98 2.15,-1.32 z m 23.94,36.75 c -5.87,0.44 -12.03,1.86 -16.62,5.69 -0.88,0.74 -3.62,3.11 -2.89,4.31 0.44,0.72 10.5,2.21 12.03,2.36 6.54,0.67 15.1,0.94 21.05,-2.16 3.05,-1.59 6.44,-4.86 2.54,-7.74 -3.9,-2.88 -11.51,-2.8 -16.1,-2.46 z m -72.69,0.72 c -9.51,1.01 -9.75,8.8 -0.95,11.13 5.76,1.52 14.1,0.77 19.87,-0.62 1.48,-0.36 10.44,-3.17 10.63,-4.26 -0.23,-0.89 -1.32,-1.19 -2.09,-1.46 -7.28,-2.53 -19.89,-5.6 -27.45,-4.8 z"
           id="path26"
           style="fill:#ffffff;fill-opacity:1" />
        <path
           d="m 432.57,355.69 v 64.38 c 0,0.25 -0.32,1.68 -0.63,1.77 h -4.01 c 0,0 -0.4,-0.33 -0.4,-0.33 v -65.82 z"
           id="path27"
           style="fill:#ffffff;fill-opacity:1" />
        <rect
           x="260.34"
           y="355.69"
           width="4.5599999"
           height="65.940002"
           id="rect27"
           style="fill:#ffffff;fill-opacity:1" />
        <polygon
           points="258.43,421.47 257.95,421.75 254.81,421.49 254.82,355.69 258.42,355.69 "
           id="polygon27"
           style="fill:#ffffff;fill-opacity:1" />
        <polygon
           points="270.41,421.87 267.66,421.87 267.06,421.51 267.06,355.69 270.41,355.69 "
           id="polygon28"
           style="fill:#ffffff;fill-opacity:1" />
        <rect
           x="437.85001"
           y="355.69"
           width="3.3599999"
           height="65.940002"
           id="rect28"
           style="fill:#ffffff;fill-opacity:1" />
        <polygon
           points="315.03,355.69 315.02,416.24 315.03,421.87 311.91,421.87 311.91,355.69 "
           id="polygon29"
           style="fill:#ffffff;fill-opacity:1" />
        <path
           d="m 296.08,355.69 v 65.94 h -3.36 c -0.06,-0.18 0.24,-0.29 0.24,-0.36 v -65.58 z"
           id="path29"
           style="fill:#ffffff;fill-opacity:1" />
        <polygon
           points="422.02,421.51 419.12,421.76 419.09,373.79 418.9,355.69 422.02,355.69 "
           id="polygon30"
           style="fill:#ffffff;fill-opacity:1" />
        <polygon
           points="391.55,421.63 391.31,355.69 394.43,355.69 394.43,421.63 "
           id="polygon31"
           style="fill:#ffffff;fill-opacity:1" />
        <rect
           x="323.91"
           y="355.69"
           width="1.6799999"
           height="66.18"
           id="rect31"
           style="fill:#ffffff;fill-opacity:1" />
        <polygon
           points="318.63,421.87 316.95,421.87 316.94,370.42 316.95,355.69 318.63,355.69 "
           id="polygon32"
           style="fill:#ffffff;fill-opacity:1" />
        <polygon
           points="247.99,421.87 247.86,355.69 249.55,355.69 249.55,421.87 "
           id="polygon33"
           style="fill:#ffffff;fill-opacity:1" />
        <polygon
           points="277.37,355.69 277.36,384.1 277.37,421.87 275.69,421.87 275.69,355.69 "
           id="polygon34"
           style="fill:#ffffff;fill-opacity:1" />
        <polygon
           points="287.45,421.87 286.01,421.87 286.01,355.69 287.45,355.69 287.6,381.99 287.69,409.04 "
           id="polygon35"
           style="fill:#ffffff;fill-opacity:1" />
        <polygon
           points="435.93,355.69 435.91,414.09 436.11,421.52 434.49,421.87 434.49,355.69 "
           id="polygon36"
           style="fill:#ffffff;fill-opacity:1" />
        <rect
           x="301.60001"
           y="355.69"
           width="1.4400001"
           height="66.18"
           id="rect36"
           style="fill:#ffffff;fill-opacity:1" />
        <rect
           x="282.64999"
           y="355.69"
           width="1.4400001"
           height="66.18"
           id="rect37"
           style="fill:#ffffff;fill-opacity:1" />
        <path
           d="m 305.2,355.69 h 1.44 c -0.18,0.36 -0.24,0.66 -0.25,1.07 -0.48,19.75 0.26,39.84 0,59.47 -0.02,1.75 -0.15,3.73 0.25,5.4 l -1.44,-0.12 z"
           id="path37"
           style="fill:#ffffff;fill-opacity:1" />
      </g>
      <g
         id="g45"
         transform="translate(2.1230604,-69.636381)"
         style="fill:#ffffff;fill-opacity:1">
        <path
           d="m 435.99,483.18 c 1.47,1.21 6.36,0.06 8.14,-0.48 4.11,-1.25 7.77,-3.63 11.34,-5.93 l -1.58,1.54 c -3.19,2.11 -6.73,4.07 -10.43,5.16 -3.7,1.09 -8.53,2.57 -10.2,-2.01 -0.26,-0.7 -0.08,-2.31 -1.06,-2.29 -0.36,0 -5.38,2.75 -6.44,3.16 -2.64,1.04 -6.2,2.22 -8.99,1.23 -0.84,-0.3 -1.34,-1.07 -2.19,-1.02 -2.77,7.22 -6.9,13.86 -11.43,20.1 -3.32,4.58 -9.72,13.12 -14.8,15.42 -2.15,0.97 -5.13,1.09 -4.95,-2.05 0.32,-5.36 11.35,-18.12 15.11,-22.57 2.96,-3.51 6.13,-6.83 9.07,-10.35 0.08,-0.37 0.18,-0.64 -0.32,-0.57 -1.71,0.24 -4.28,1.97 -6.34,2.29 -1.18,0.19 -3.64,0.4 -4.3,-0.76 -1.12,-2.68 0.89,-4.67 2.49,-6.57 1.6,-1.9 3.72,-4.09 5.51,-5.76 0.59,-0.55 4.24,-3.74 4.62,-3.8 2.96,0.77 -1.67,3.55 -2.7,4.52 -1.53,1.44 -7.49,7.27 -7.92,8.87 -0.19,0.72 -0.35,2.13 0.26,2.63 1.16,0.82 5.33,-0.88 6.67,-1.45 3.37,-1.46 4.81,-2.66 7.34,-5.13 13.06,-12.74 25.34,-26.51 40.23,-37.23 2.59,-1.87 8.75,-6.36 11.54,-7.17 2.16,-0.62 4.69,0.01 3.38,2.66 -1.31,2.65 -7.15,7.94 -9.56,10.11 -11.4,10.24 -24.67,20.37 -37.82,28.13 -2.29,1.35 -5.42,3.34 -5.33,6.37 0.11,3.94 6.45,2.79 8.9,1.99 8.85,-2.88 12.8,-10.44 20.82,-13.95 1.67,-0.73 9.98,-3.86 9.31,0.17 -0.5,2.99 -7.78,6.55 -10.52,7.25 -2.06,0.53 -4.26,0.41 -6.06,0.9 -2.52,0.68 -3.54,5.15 -1.79,6.59 z m 30.64,-49.08 c -2.74,0.17 -5.38,2.03 -7.66,3.5 -9.95,6.42 -19.01,15.58 -27.49,23.83 -3.13,3.05 -7.49,6.93 -10.19,10.2 -0.22,0.27 -0.58,0.39 -0.48,0.84 3.22,-0.96 5.98,-3.19 8.71,-5.08 10.45,-7.24 25.55,-18.17 33.87,-27.53 1.39,-1.56 3.39,-3.57 3.23,-5.76 z m -15.15,33.38 c -2.04,0.07 -4.89,1.67 -6.66,2.72 -2.29,1.36 -10.37,6.77 -2.17,5.27 3.18,-0.58 6.5,-2.4 8.87,-4.57 1.29,-1.18 3.11,-3.53 -0.04,-3.42 z m -38.1,13.13 c -0.52,-0.35 -2.01,1.38 -2.4,1.79 -6.63,6.85 -14,15.33 -19.76,22.93 -1.61,2.13 -4.98,6.89 -5.87,9.24 -1.47,3.87 1.22,3.69 3.88,2.2 7.82,-4.39 18.99,-22.05 22.68,-30.32 0.41,-0.93 2.46,-5.17 1.47,-5.84 z"
           id="path42"
           style="fill:#ffffff;fill-opacity:1" />
      </g>
    </g>
  </g>
</svg>
